<?xml version="1.0" encoding="UTF-8"?>
<!DOCTYPE svg PUBLIC "-//W3C//DTD SVG 1.1//EN" "http://www.w3.org/Graphics/SVG/1.1/DTD/svg11.dtd">
<svg xmlns="http://www.w3.org/2000/svg" version="1.1" width="1180px" height="286px" style="shape-rendering:geometricPrecision; text-rendering:geometricPrecision; image-rendering:optimizeQuality; fill-rule:evenodd; clip-rule:evenodd" xmlns:xlink="http://www.w3.org/1999/xlink">
<g><path style="opacity:1" fill="#151615" d="M 547.5,71.5 C 547.821,73.0481 548.821,73.7148 550.5,73.5C 553.089,74.4194 555.089,76.086 556.5,78.5C 556.427,80.0269 557.094,81.0269 558.5,81.5C 560.585,83.6845 561.585,86.3511 561.5,89.5C 580.167,89.5 598.833,89.5 617.5,89.5C 617.415,86.3511 618.415,83.6845 620.5,81.5C 621.906,81.0269 622.573,80.0269 622.5,78.5C 625.092,74.5289 628.759,72.0289 633.5,71C 723.833,70.3333 814.167,70.3333 904.5,71C 909.143,73.0724 910.643,76.5724 909,81.5C 906.965,87.0694 903.798,91.9027 899.5,96C 897.5,96.3333 895.5,96.6667 893.5,97C 889.774,101.728 886.441,106.728 883.5,112C 879.615,114.126 875.615,115.96 871.5,117.5C 868.375,122.249 865.375,127.083 862.5,132C 824.328,144.127 785.995,155.794 747.5,167C 746.069,167.465 744.903,168.299 744,169.5C 740.859,177.974 735.026,183.808 726.5,187C 692.659,196.793 658.659,205.96 624.5,214.5C 620.005,214.28 616.005,212.78 612.5,210C 607.297,204.965 602.297,199.798 597.5,194.5C 597.027,193.094 596.027,192.427 594.5,192.5C 593.038,191.542 591.705,190.376 590.5,189C 581.743,194.732 573.743,201.732 566.5,210C 560.201,214.788 553.534,215.621 546.5,212.5C 544.485,211.076 542.152,210.41 539.5,210.5C 537.901,210.768 536.568,210.434 535.5,209.5C 533.485,208.076 531.152,207.41 528.5,207.5C 526.901,207.768 525.568,207.434 524.5,206.5C 522.485,205.076 520.152,204.41 517.5,204.5C 515.901,204.768 514.568,204.434 513.5,203.5C 511.485,202.076 509.152,201.41 506.5,201.5C 499.91,200.408 493.577,198.741 487.5,196.5C 485.485,195.076 483.152,194.41 480.5,194.5C 478.485,193.076 476.152,192.41 473.5,192.5C 471.901,192.768 470.568,192.434 469.5,191.5C 467.485,190.076 465.152,189.41 462.5,189.5C 456.057,188.629 450.057,186.463 444.5,183C 439.785,177.703 435.452,172.203 431.5,166.5C 429.898,164.926 427.898,164.259 425.5,164.5C 423.485,163.076 421.152,162.41 418.5,162.5C 415.495,160.723 412.162,159.723 408.5,159.5C 405.495,157.723 402.162,156.723 398.5,156.5C 396.485,155.076 394.152,154.41 391.5,154.5C 388.495,152.723 385.162,151.723 381.5,151.5C 379.485,150.076 377.152,149.41 374.5,149.5C 372.485,148.076 370.152,147.41 367.5,147.5C 364.495,145.723 361.162,144.723 357.5,144.5C 355.485,143.076 353.152,142.41 350.5,142.5C 348.485,141.076 346.152,140.41 343.5,140.5C 340.495,138.723 337.162,137.723 333.5,137.5C 331.485,136.076 329.152,135.41 326.5,135.5C 323.458,135.267 320.792,134.267 318.5,132.5C 318.027,131.094 317.027,130.427 315.5,130.5C 312.402,125.291 309.068,120.291 305.5,115.5C 303.485,114.076 301.152,113.41 298.5,113.5C 297.833,113.5 297.5,113.167 297.5,112.5C 297.027,111.094 296.027,110.427 294.5,110.5C 291.722,105.882 288.722,101.382 285.5,97C 279.024,96.2062 274.524,92.7062 272,86.5C 269.844,82.7384 269.177,78.7384 270,74.5C 271.214,72.9512 272.714,71.7845 274.5,71C 365.54,70.1718 456.54,70.3385 547.5,71.5 Z"/></g>
<g><path style="opacity:1" fill="#707070" d="M 547.5,71.5 C 548.71,71.9321 549.71,72.5987 550.5,73.5C 548.821,73.7148 547.821,73.0481 547.5,71.5 Z"/></g>
<g><path style="opacity:1" fill="#404040" d="M 539.5,75.5 C 499.33,75.1681 459.33,75.5014 419.5,76.5C 418.957,76.44 418.624,76.1067 418.5,75.5C 458.998,74.1694 499.331,74.1694 539.5,75.5 Z"/></g>
<g><path style="opacity:1" fill="#404040" d="M 638.5,75.5 C 679.002,74.1694 719.669,74.1694 760.5,75.5C 760.376,76.1067 760.043,76.44 759.5,76.5C 719.337,75.5014 679.003,75.1681 638.5,75.5 Z"/></g>
<g><path style="opacity:1" fill="#fdfdfd" d="M 424.5,89.5 C 377.003,90.4988 329.336,90.8321 281.5,90.5C 279.108,87.4022 276.942,84.0689 275,80.5C 274.28,78.8876 274.446,77.3876 275.5,76C 320.833,75.3333 366.167,75.3333 411.5,76C 418.03,78.3633 422.363,82.8633 424.5,89.5 Z"/></g>
<g><path style="opacity:1" fill="#fbfbfb" d="M 419.5,76.5 C 459.33,75.5014 499.33,75.1681 539.5,75.5C 549.692,76.0861 555.359,81.4194 556.5,91.5C 514.161,91.8333 471.828,91.4999 429.5,90.5C 427.126,85.0614 423.793,80.3947 419.5,76.5 Z"/></g>
<g><path style="opacity:1" fill="#fbfbfb" d="M 638.5,75.5 C 679.003,75.1681 719.337,75.5014 759.5,76.5C 755.207,80.3947 751.874,85.0614 749.5,90.5C 707.172,91.4999 664.839,91.8333 622.5,91.5C 623.5,81.8333 628.833,76.5 638.5,75.5 Z"/></g>
<g><path style="opacity:1" fill="#fdfdfd" d="M 897.5,90.5 C 849.664,90.8321 801.997,90.4988 754.5,89.5C 756.55,83.2821 760.55,78.7821 766.5,76C 812.167,75.3333 857.833,75.3333 903.5,76C 904.554,77.3876 904.72,78.8876 904,80.5C 902.058,84.0689 899.892,87.4022 897.5,90.5 Z"/></g>
<g><path style="opacity:0.459" fill="#898989" d="M 556.5,78.5 C 557.906,78.9731 558.573,79.9731 558.5,81.5C 557.094,81.0269 556.427,80.0269 556.5,78.5 Z"/></g>
<g><path style="opacity:0.459" fill="#898989" d="M 622.5,78.5 C 622.573,80.0269 621.906,81.0269 620.5,81.5C 620.427,79.9731 621.094,78.9731 622.5,78.5 Z"/></g>
<g><path style="opacity:1" fill="#d8d8d8" d="M 424.5,89.5 C 425.043,89.56 425.376,89.8933 425.5,90.5C 377.335,91.831 329.335,91.831 281.5,90.5C 329.336,90.8321 377.003,90.4988 424.5,89.5 Z"/></g>
<g><path style="opacity:1" fill="#d7d7d7" d="M 754.5,89.5 C 801.997,90.4988 849.664,90.8321 897.5,90.5C 849.665,91.831 801.665,91.831 753.5,90.5C 753.624,89.8933 753.957,89.56 754.5,89.5 Z"/></g>
<g><path style="opacity:1" fill="#585858" d="M 428.5,95.5 C 382.997,95.1679 337.664,95.5012 292.5,96.5C 291.957,96.44 291.624,96.1067 291.5,95.5C 337.332,94.1691 382.998,94.1691 428.5,95.5 Z"/></g>
<g><path style="opacity:1" fill="#585858" d="M 457.5,95.5 C 449.316,95.1743 441.316,95.5076 433.5,96.5C 432.957,96.44 432.624,96.1067 432.5,95.5C 440.991,94.1791 449.324,94.1791 457.5,95.5 Z"/></g>
<g><path style="opacity:1" fill="#5b5b5b" d="M 721.5,95.5 C 729.676,94.1791 738.009,94.1791 746.5,95.5C 746.376,96.1067 746.043,96.44 745.5,96.5C 737.684,95.5076 729.684,95.1743 721.5,95.5 Z"/></g>
<g><path style="opacity:1" fill="#585858" d="M 750.5,95.5 C 796.002,94.1691 841.668,94.1691 887.5,95.5C 887.376,96.1067 887.043,96.44 886.5,96.5C 841.336,95.5012 796.003,95.1679 750.5,95.5 Z"/></g>
<g><path style="opacity:1" fill="#f8f8f8" d="M 428.5,95.5 C 429.248,97.3325 430.248,98.9991 431.5,100.5C 428.5,101.167 425.5,101.833 422.5,102.5C 383.952,104.433 345.452,107.099 307,110.5C 304.7,110.506 302.534,110.006 300.5,109C 297.448,105.059 294.782,100.893 292.5,96.5C 337.664,95.5012 382.997,95.1679 428.5,95.5 Z"/></g>
<g><path style="opacity:1" fill="#f6f6f6" d="M 457.5,95.5 C 457.5,97.1667 457.5,98.8333 457.5,100.5C 450.464,100.545 443.464,100.712 436.5,101C 435.117,99.7292 434.117,98.2292 433.5,96.5C 441.316,95.5076 449.316,95.1743 457.5,95.5 Z"/></g>
<g><path style="opacity:1" fill="#095034" d="M 708.5,95.5 C 711.5,95.5 714.5,95.5 717.5,95.5C 717.5,106.833 717.5,118.167 717.5,129.5C 702.496,129.667 687.496,129.5 672.5,129C 679.524,128.831 686.524,128.331 693.5,127.5C 693.192,126.692 692.692,126.025 692,125.5C 691.501,119.843 691.334,114.176 691.5,108.5C 696.784,114.12 702.117,119.787 707.5,125.5C 707.833,121.5 708.167,117.5 708.5,113.5C 708.491,109.107 707.824,105.107 706.5,101.5C 710.568,99.7897 710.235,98.6231 705.5,98C 707.119,97.7645 708.119,96.9311 708.5,95.5 Z"/></g>
<g><path style="opacity:1" fill="#f6f6f6" d="M 721.5,95.5 C 729.684,95.1743 737.684,95.5076 745.5,96.5C 744.883,98.2292 743.883,99.7292 742.5,101C 735.524,100.836 728.524,100.669 721.5,100.5C 721.5,98.8333 721.5,97.1667 721.5,95.5 Z"/></g>
<g><path style="opacity:1" fill="#f9f9f9" d="M 750.5,95.5 C 796.003,95.1679 841.336,95.5012 886.5,96.5C 884.218,100.893 881.552,105.059 878.5,109C 876.298,110.022 873.965,110.522 871.5,110.5C 832.834,107.759 794.167,105.093 755.5,102.5C 752.833,101.833 750.167,101.167 747.5,100.5C 748.752,98.9991 749.752,97.3325 750.5,95.5 Z"/></g>
<g><path style="opacity:1" fill="#818181" d="M 431.5,100.5 C 432.043,100.56 432.376,100.893 432.5,101.5C 429.232,102.487 425.898,102.82 422.5,102.5C 425.5,101.833 428.5,101.167 431.5,100.5 Z"/></g>
<g><path style="opacity:1" fill="#247d54" d="M 541.5,95.5 C 562.833,95.5 584.167,95.5 605.5,95.5C 599.751,95.5383 594.751,97.5383 590.5,101.5C 590.795,103.735 590.461,105.735 589.5,107.5C 589.631,106.624 589.298,105.957 588.5,105.5C 586.5,108.167 584.5,110.833 582.5,113.5C 581.749,112.624 581.249,111.624 581,110.5C 580.333,113.167 579.667,115.833 579,118.5C 578,119.833 577,119.833 576,118.5C 575.667,113.167 575.333,107.833 575,102.5C 574.829,110.344 574.329,118.011 573.5,125.5C 573.831,117.472 573.498,109.472 572.5,101.5C 571.67,107.138 571.17,112.804 571,118.5C 566.2,112.698 561.033,107.198 555.5,102C 554.906,101.536 554.239,101.369 553.5,101.5C 551.805,100.989 550.139,100.322 548.5,99.5C 550.657,98.2096 552.99,97.3763 555.5,97C 550.649,96.8255 545.982,96.3255 541.5,95.5 Z"/></g>
<g><path style="opacity:1" fill="#979797" d="M 747.5,100.5 C 750.167,101.167 752.833,101.833 755.5,102.5C 752.428,102.817 749.428,102.484 746.5,101.5C 746.624,100.893 746.957,100.56 747.5,100.5 Z"/></g>
<g><path style="opacity:1" fill="#e3f0e9" d="M 523.5,101.5 C 524.043,101.56 524.376,101.893 524.5,102.5C 522.257,103.474 519.924,103.808 517.5,103.5C 517.5,110.833 517.5,118.167 517.5,125.5C 516.167,125.5 514.833,125.5 513.5,125.5C 513.5,118.5 513.5,111.5 513.5,104.5C 511.302,103.835 508.969,103.168 506.5,102.5C 512.128,101.505 517.794,101.171 523.5,101.5 Z"/></g>
<g><path style="opacity:1" fill="#ededed" d="M 439.5,104.5 C 445.5,104.5 451.5,104.5 457.5,104.5C 457.5,106.167 457.5,107.833 457.5,109.5C 452.488,109.92 447.488,110.087 442.5,110C 441.242,108.259 440.242,106.426 439.5,104.5 Z"/></g>
<g><path style="opacity:1" fill="#e8f4ee" d="M 501.5,112.5 C 506.144,117.937 505.144,122.27 498.5,125.5C 495.881,125.768 493.381,125.435 491,124.5C 490.333,123.167 490.333,121.833 491,120.5C 493.21,123.29 496.044,124.123 499.5,123C 501.648,120.925 501.982,118.592 500.5,116C 496.793,115.064 493.626,113.231 491,110.5C 490.409,102.115 494.242,99.2819 502.5,102C 503.731,103.183 503.731,104.349 502.5,105.5C 498.695,101.27 495.695,101.77 493.5,107C 495.262,110.055 497.928,111.888 501.5,112.5 Z"/></g>
<g><path style="opacity:1" fill="#f2f2f2" d="M 721.5,104.5 C 727.555,104.338 733.555,104.838 739.5,106C 738.257,107.154 737.257,108.488 736.5,110C 731.499,110.251 726.499,110.084 721.5,109.5C 721.5,107.833 721.5,106.167 721.5,104.5 Z"/></g>
<g><path style="opacity:1" fill="#e5f0ea" d="M 590.5,101.5 C 591.496,101.414 592.329,101.748 593,102.5C 595.493,108.157 598.493,113.49 602,118.5C 605.013,112.462 608.513,106.796 612.5,101.5C 613.83,109.468 614.83,117.468 615.5,125.5C 614.167,125.5 612.833,125.5 611.5,125.5C 611.851,119.738 611.351,114.072 610,108.5C 606.977,113.212 604.477,118.212 602.5,123.5C 601.603,124.598 600.77,124.598 600,123.5C 597.754,118.674 595.254,114.008 592.5,109.5C 590.912,114.71 590.245,120.043 590.5,125.5C 589.5,125.5 588.5,125.5 587.5,125.5C 588.494,119.544 589.161,113.544 589.5,107.5C 590.461,105.735 590.795,103.735 590.5,101.5 Z"/></g>
<g><path style="opacity:1" fill="#f5f5f5" d="M 429.5,105.5 C 434.093,104.418 437.093,106.085 438.5,110.5C 437.624,111.251 436.624,111.751 435.5,112C 398.545,117.157 361.545,121.991 324.5,126.5C 322.5,126.167 320.5,125.833 318.5,125.5C 315.941,121.714 313.941,117.714 312.5,113.5C 351.677,111.252 390.677,108.585 429.5,105.5 Z"/></g>
<g><path style="opacity:1" fill="#edf3f1" d="M 706.5,101.5 C 707.824,105.107 708.491,109.107 708.5,113.5C 708.167,117.5 707.833,121.5 707.5,125.5C 702.117,119.787 696.784,114.12 691.5,108.5C 690.792,113.438 690.125,119.105 689.5,125.5C 688.167,117.5 688.167,109.5 689.5,101.5C 694.791,107.292 700.291,112.959 706,118.5C 706.499,112.843 706.666,107.176 706.5,101.5 Z"/></g>
<g><path style="opacity:1" fill="#f4f4f4" d="M 829.5,123.5 C 825.081,122.028 820.414,121.362 815.5,121.5C 791.124,118.756 766.79,115.589 742.5,112C 741.044,111.577 740.544,110.744 741,109.5C 742.022,108.646 742.855,107.646 743.5,106.5C 744.833,106.167 746.167,105.833 747.5,105.5C 787.156,108.377 826.823,111.043 866.5,113.5C 864.993,118.679 862.327,123.179 858.5,127C 848.765,126.36 839.098,125.193 829.5,123.5 Z"/></g>
<g><path style="opacity:1" fill="#ecf4f0" d="M 553.5,101.5 C 554.239,101.369 554.906,101.536 555.5,102C 561.033,107.198 566.2,112.698 571,118.5C 571.17,112.804 571.67,107.138 572.5,101.5C 573.498,109.472 573.831,117.472 573.5,125.5C 572.167,124.5 570.833,123.5 569.5,122.5C 565.874,117.539 561.874,112.872 557.5,108.5C 557.44,107.957 557.107,107.624 556.5,107.5C 555.504,113.463 555.171,119.463 555.5,125.5C 554.833,125.5 554.167,125.5 553.5,125.5C 553.5,117.5 553.5,109.5 553.5,101.5 Z"/></g>
<g><path style="opacity:1" fill="#7f7f7f" d="M 294.5,110.5 C 296.027,110.427 297.027,111.094 297.5,112.5C 295.973,112.573 294.973,111.906 294.5,110.5 Z"/></g>
<g><path style="opacity:1" fill="#085335" d="M 669.5,95.5 C 682.5,95.5 695.5,95.5 708.5,95.5C 708.119,96.9311 707.119,97.7645 705.5,98C 710.235,98.6231 710.568,99.7897 706.5,101.5C 706.666,107.176 706.499,112.843 706,118.5C 700.291,112.959 694.791,107.292 689.5,101.5C 688.167,109.5 688.167,117.5 689.5,125.5C 690.125,119.105 690.792,113.438 691.5,108.5C 691.334,114.176 691.501,119.843 692,125.5C 692.692,126.025 693.192,126.692 693.5,127.5C 686.524,128.331 679.524,128.831 672.5,129C 687.496,129.5 702.496,129.667 717.5,129.5C 675.172,130.833 632.505,131.5 589.5,131.5C 546.665,131.5 503.999,131.167 461.5,130.5C 482.833,130.5 504.167,130.5 525.5,130.5C 543.167,130.5 560.833,130.5 578.5,130.5C 587.5,130.5 596.5,130.5 605.5,130.5C 616.505,130.667 627.505,130.5 638.5,130C 635.833,129.667 633.167,129.333 630.5,129C 634.103,127.521 637.77,126.354 641.5,125.5C 642.833,125.5 644.167,125.5 645.5,125.5C 645.185,121.629 645.518,117.962 646.5,114.5C 649.718,117.555 652.384,121.055 654.5,125C 656.167,125.667 657.833,125.667 659.5,125C 656.5,121.333 653.5,117.667 650.5,114C 653.106,113.208 655.106,111.708 656.5,109.5C 657.645,110.793 657.311,111.959 655.5,113C 656.448,113.483 657.448,113.649 658.5,113.5C 657.549,108.61 657.549,105.61 658.5,104.5C 660.833,104.5 663.167,104.5 665.5,104.5C 665.175,111.687 665.509,118.687 666.5,125.5C 667.5,125.5 668.5,125.5 669.5,125.5C 670.491,118.687 670.825,111.687 670.5,104.5C 673.059,104.802 675.393,104.468 677.5,103.5C 677.672,102.508 677.338,101.842 676.5,101.5C 671.684,100.674 666.684,100.174 661.5,100C 664.553,99.8214 667.553,99.3214 670.5,98.5C 669.873,97.5832 669.539,96.5832 669.5,95.5 Z"/></g>
<g><path style="opacity:1" fill="#6e9c87" d="M 677.5,103.5 C 675.393,104.468 673.059,104.802 670.5,104.5C 670.825,111.687 670.491,118.687 669.5,125.5C 669.5,118.167 669.5,110.833 669.5,103.5C 672.167,103.5 674.833,103.5 677.5,103.5 Z"/></g>
<g><path style="opacity:1" fill="#d3e0da" d="M 679.5,101.5 C 680.833,101.5 682.167,101.5 683.5,101.5C 683.5,109.5 683.5,117.5 683.5,125.5C 682.167,125.5 680.833,125.5 679.5,125.5C 679.5,117.5 679.5,109.5 679.5,101.5 Z"/></g>
<g><path style="opacity:1" fill="#f3f6f4" d="M 676.5,101.5 C 677.338,101.842 677.672,102.508 677.5,103.5C 674.833,103.5 672.167,103.5 669.5,103.5C 669.5,110.833 669.5,118.167 669.5,125.5C 668.5,125.5 667.5,125.5 666.5,125.5C 666.5,118.167 666.5,110.833 666.5,103.5C 664.076,103.808 661.743,103.474 659.5,102.5C 665.128,101.505 670.794,101.171 676.5,101.5 Z"/></g>
<g><path style="opacity:1" fill="#6fae92" d="M 557.5,108.5 C 556.833,114.167 556.167,119.833 555.5,125.5C 555.171,119.463 555.504,113.463 556.5,107.5C 557.107,107.624 557.44,107.957 557.5,108.5 Z"/></g>
<g><path style="opacity:1" fill="#e8e8e8" d="M 446.5,113.5 C 450.167,113.5 453.833,113.5 457.5,113.5C 457.5,115.5 457.5,117.5 457.5,119.5C 451.95,120.565 448.283,118.565 446.5,113.5 Z"/></g>
<g><path style="opacity:1" fill="#f0f0f0" d="M 721.5,113.5 C 725.247,113.392 728.914,113.892 732.5,115C 729.853,118.756 726.187,120.256 721.5,119.5C 721.5,117.5 721.5,115.5 721.5,113.5 Z"/></g>
<g><path style="opacity:0.631" fill="#656565" d="M 298.5,113.5 C 301.152,113.41 303.485,114.076 305.5,115.5C 302.848,115.59 300.515,114.924 298.5,113.5 Z"/></g>
<g><path style="opacity:1" fill="#349766" d="M 508.5,95.5 C 510.969,96.3171 513.635,96.8171 516.5,97C 512.833,97.3333 509.167,97.6667 505.5,98C 508.544,98.3589 508.878,99.0255 506.5,100C 512.348,100.173 518.015,100.673 523.5,101.5C 517.794,101.171 512.128,101.505 506.5,102.5C 508.969,103.168 511.302,103.835 513.5,104.5C 512.127,104.343 510.793,104.51 509.5,105C 511.405,105.826 511.739,106.993 510.5,108.5C 507.292,109.609 504.292,110.942 501.5,112.5C 497.928,111.888 495.262,110.055 493.5,107C 495.695,101.77 498.695,101.27 502.5,105.5C 503.731,104.349 503.731,103.183 502.5,102C 494.242,99.2819 490.409,102.115 491,110.5C 493.626,113.231 496.793,115.064 500.5,116C 501.982,118.592 501.648,120.925 499.5,123C 496.044,124.123 493.21,123.29 491,120.5C 490.333,121.833 490.333,123.167 491,124.5C 493.381,125.435 495.881,125.768 498.5,125.5C 497.048,126.302 495.382,126.802 493.5,127C 504.023,129.243 514.69,130.076 525.5,129.5C 525.5,129.833 525.5,130.167 525.5,130.5C 504.167,130.5 482.833,130.5 461.5,130.5C 461.5,118.833 461.5,107.167 461.5,95.5C 477.167,95.5 492.833,95.5 508.5,95.5 Z"/></g>
<g><path style="opacity:1" fill="#e7f3ec" d="M 476.5,101.5 C 477.496,101.414 478.329,101.748 479,102.5C 482.664,110.001 485.831,117.667 488.5,125.5C 487.167,125.5 485.833,125.5 484.5,125.5C 483.969,122.763 483.136,120.096 482,117.5C 478.667,116.167 475.333,116.167 472,117.5C 470.864,120.096 470.031,122.763 469.5,125.5C 468.325,125.719 467.325,125.386 466.5,124.5C 470.228,116.974 473.562,109.308 476.5,101.5 Z"/></g>
<g><path style="opacity:1" fill="#449e6f" d="M 476.5,107.5 C 478.306,109.089 479.639,111.089 480.5,113.5C 478.167,114.833 475.833,114.833 473.5,113.5C 474.559,111.466 475.559,109.466 476.5,107.5 Z"/></g>
<g><path style="opacity:1" fill="#f2f2f2" d="M 432.5,115.5 C 435.85,115.335 439.183,115.502 442.5,116C 444.019,117.351 445.352,118.851 446.5,120.5C 419.462,126.141 392.462,131.974 365.5,138C 360.833,138.667 356.167,138.667 351.5,138C 343.389,135.806 335.389,133.306 327.5,130.5C 362.699,125.948 397.699,120.948 432.5,115.5 Z"/></g>
<g><path style="opacity:1" fill="#f2f2f2" d="M 846.5,129.5 C 847.5,130.167 848.5,130.833 849.5,131.5C 842.085,133.374 834.751,135.54 827.5,138C 822.5,138.667 817.5,138.667 812.5,138C 786.368,132.339 760.201,126.839 734,121.5C 732.743,121.15 732.409,120.483 733,119.5C 734.562,117.09 736.729,115.756 739.5,115.5C 775.173,120.168 810.84,124.835 846.5,129.5 Z"/></g>
<g><path style="opacity:1" fill="#1f7c52" d="M 553.5,125.5 C 554.167,125.5 554.833,125.5 555.5,125.5C 556.167,119.833 556.833,114.167 557.5,108.5C 561.874,112.872 565.874,117.539 569.5,122.5C 568.355,123.793 568.689,124.959 570.5,126C 569.101,126.595 567.768,126.428 566.5,125.5C 565.692,125.808 565.025,126.308 564.5,127C 567.167,127.333 569.833,127.667 572.5,128C 570.833,128.333 569.167,128.667 567.5,129C 571.356,129.177 575.023,129.677 578.5,130.5C 560.833,130.5 543.167,130.5 525.5,130.5C 525.5,130.167 525.5,129.833 525.5,129.5C 527.37,128.044 529.37,126.711 531.5,125.5C 544.722,127.275 550.722,121.608 549.5,108.5C 549.435,108.062 549.601,107.728 550,107.5C 550.333,108.167 550.667,108.833 551,109.5C 551.333,107.167 551.667,104.833 552,102.5C 552.171,110.344 552.671,118.011 553.5,125.5 Z"/></g>
<g><path style="opacity:1" fill="#b7b7b7" d="M 815.5,121.5 C 820.414,121.362 825.081,122.028 829.5,123.5C 824.586,123.638 819.919,122.972 815.5,121.5 Z"/></g>
<g><path style="opacity:1" fill="#1b734c" d="M 589.5,107.5 C 589.161,113.544 588.494,119.544 587.5,125.5C 588.5,125.5 589.5,125.5 590.5,125.5C 590.245,120.043 590.912,114.71 592.5,109.5C 595.254,114.008 597.754,118.674 600,123.5C 600.77,124.598 601.603,124.598 602.5,123.5C 602.586,124.496 602.252,125.329 601.5,126C 600.062,126.219 598.729,126.719 597.5,127.5C 600.447,128.08 603.114,129.08 605.5,130.5C 596.5,130.5 587.5,130.5 578.5,130.5C 575.023,129.677 571.356,129.177 567.5,129C 569.167,128.667 570.833,128.333 572.5,128C 569.833,127.667 567.167,127.333 564.5,127C 565.025,126.308 565.692,125.808 566.5,125.5C 567.768,126.428 569.101,126.595 570.5,126C 568.689,124.959 568.355,123.793 569.5,122.5C 570.833,123.5 572.167,124.5 573.5,125.5C 574.329,118.011 574.829,110.344 575,102.5C 575.333,107.833 575.667,113.167 576,118.5C 577,119.833 578,119.833 579,118.5C 579.667,115.833 580.333,113.167 581,110.5C 581.249,111.624 581.749,112.624 582.5,113.5C 584.5,110.833 586.5,108.167 588.5,105.5C 589.298,105.957 589.631,106.624 589.5,107.5 Z"/></g>
<g><path style="opacity:1" fill="#d5d3d5" d="M 454.5,122.5 C 455.5,122.5 456.5,122.5 457.5,122.5C 457.354,127.421 456.354,127.421 454.5,122.5 Z"/></g>
<g><path style="opacity:1" fill="#eff1f1" d="M 721.5,123.5 C 725.133,123.443 725.3,124.443 722,126.5C 721.517,125.552 721.351,124.552 721.5,123.5 Z"/></g>
<g><path style="opacity:1" fill="#f4f4f4" d="M 444.5,124.5 C 449.542,124.015 453.376,126.015 456,130.5C 456.591,131.483 456.257,132.15 455,132.5C 437.514,137.999 420.014,143.499 402.5,149C 397.833,149.667 393.167,149.667 388.5,149C 380.833,146.667 373.167,144.333 365.5,142C 391.898,136.159 418.232,130.326 444.5,124.5 Z"/></g>
<g><path style="opacity:1" fill="#176b47" d="M 605.5,95.5 C 626.833,95.5 648.167,95.5 669.5,95.5C 669.539,96.5832 669.873,97.5832 670.5,98.5C 667.553,99.3214 664.553,99.8214 661.5,100C 666.684,100.174 671.684,100.674 676.5,101.5C 670.794,101.171 665.128,101.505 659.5,102.5C 661.743,103.474 664.076,103.808 666.5,103.5C 666.5,110.833 666.5,118.167 666.5,125.5C 665.509,118.687 665.175,111.687 665.5,104.5C 663.167,104.5 660.833,104.5 658.5,104.5C 657.549,105.61 657.549,108.61 658.5,113.5C 657.448,113.649 656.448,113.483 655.5,113C 657.311,111.959 657.645,110.793 656.5,109.5C 656.662,107.473 656.495,105.473 656,103.5C 655.329,102.748 654.496,102.414 653.5,102.5C 649.702,101.517 645.702,101.183 641.5,101.5C 641.5,109.5 641.5,117.5 641.5,125.5C 637.77,126.354 634.103,127.521 630.5,129C 633.167,129.333 635.833,129.667 638.5,130C 627.505,130.5 616.505,130.667 605.5,130.5C 603.114,129.08 600.447,128.08 597.5,127.5C 598.729,126.719 600.062,126.219 601.5,126C 602.252,125.329 602.586,124.496 602.5,123.5C 604.477,118.212 606.977,113.212 610,108.5C 611.351,114.072 611.851,119.738 611.5,125.5C 612.833,125.5 614.167,125.5 615.5,125.5C 614.83,117.468 613.83,109.468 612.5,101.5C 608.513,106.796 605.013,112.462 602,118.5C 598.493,113.49 595.493,108.157 593,102.5C 592.329,101.748 591.496,101.414 590.5,101.5C 594.751,97.5383 599.751,95.5383 605.5,95.5 Z"/></g>
<g><path style="opacity:1" fill="#edf3f0" d="M 649.5,111.5 C 653.914,109.845 654.581,107.178 651.5,103.5C 651.842,102.662 652.508,102.328 653.5,102.5C 654.496,102.414 655.329,102.748 656,103.5C 656.495,105.473 656.662,107.473 656.5,109.5C 655.106,111.708 653.106,113.208 650.5,114C 653.5,117.667 656.5,121.333 659.5,125C 657.833,125.667 656.167,125.667 654.5,125C 652.384,121.055 649.718,117.555 646.5,114.5C 646.44,113.957 646.107,113.624 645.5,113.5C 643.855,128.078 642.855,128.078 642.5,113.5C 642.833,109.833 643.167,106.167 643.5,102.5C 644.487,105.768 644.82,109.102 644.5,112.5C 646.415,112.784 648.081,112.451 649.5,111.5 Z"/></g>
<g><path style="opacity:1" fill="#e3eee8" d="M 627.5,101.5 C 628.496,101.414 629.329,101.748 630,102.5C 632.891,109.95 636.058,117.283 639.5,124.5C 638.167,125.833 636.833,125.833 635.5,124.5C 634.305,122.249 633.305,119.915 632.5,117.5C 624.471,114.529 620.471,117.195 620.5,125.5C 619.5,125.5 618.5,125.5 617.5,125.5C 620.278,117.277 623.611,109.277 627.5,101.5 Z"/></g>
<g><path style="opacity:1" fill="#bed4c9" d="M 653.5,102.5 C 652.508,102.328 651.842,102.662 651.5,103.5C 649.5,103.5 647.5,103.5 645.5,103.5C 645.5,106.167 645.5,108.833 645.5,111.5C 646.833,111.5 648.167,111.5 649.5,111.5C 648.081,112.451 646.415,112.784 644.5,112.5C 644.82,109.102 644.487,105.768 643.5,102.5C 643.167,106.167 642.833,109.833 642.5,113.5C 642.855,128.078 643.855,128.078 645.5,113.5C 646.107,113.624 646.44,113.957 646.5,114.5C 645.518,117.962 645.185,121.629 645.5,125.5C 644.167,125.5 642.833,125.5 641.5,125.5C 641.5,117.5 641.5,109.5 641.5,101.5C 645.702,101.183 649.702,101.517 653.5,102.5 Z"/></g>
<g><path style="opacity:1" fill="#256e4c" d="M 626.5,107.5 C 627.496,107.414 628.329,107.748 629,108.5C 629.813,110.436 630.313,112.436 630.5,114.5C 628.396,114.799 626.396,114.466 624.5,113.5C 625.372,111.55 626.039,109.55 626.5,107.5 Z"/></g>
<g><path style="opacity:1" fill="#0f603e" d="M 651.5,103.5 C 654.581,107.178 653.914,109.845 649.5,111.5C 648.167,111.5 646.833,111.5 645.5,111.5C 645.5,108.833 645.5,106.167 645.5,103.5C 647.5,103.5 649.5,103.5 651.5,103.5 Z"/></g>
<g><path style="opacity:1" fill="#f6f6f6" d="M 728.5,124.5 C 756.626,129.759 784.626,135.592 812.5,142C 804.833,144.333 797.167,146.667 789.5,149C 784.833,149.667 780.167,149.667 775.5,149C 758.178,143.671 740.844,138.337 723.5,133C 722.549,132.282 722.383,131.449 723,130.5C 725.04,128.63 726.873,126.63 728.5,124.5 Z"/></g>
<g><path style="opacity:1" fill="#2b8b5c" d="M 508.5,95.5 C 519.5,95.5 530.5,95.5 541.5,95.5C 545.982,96.3255 550.649,96.8255 555.5,97C 552.99,97.3763 550.657,98.2096 548.5,99.5C 550.139,100.322 551.805,100.989 553.5,101.5C 553.5,109.5 553.5,117.5 553.5,125.5C 552.671,118.011 552.171,110.344 552,102.5C 551.667,104.833 551.333,107.167 551,109.5C 550.667,108.833 550.333,108.167 550,107.5C 549.601,107.728 549.435,108.062 549.5,108.5C 544.066,101.479 537.066,99.6461 528.5,103C 522.803,108.4 521.97,114.566 526,121.5C 527.774,122.965 529.608,124.298 531.5,125.5C 529.37,126.711 527.37,128.044 525.5,129.5C 514.69,130.076 504.023,129.243 493.5,127C 495.382,126.802 497.048,126.302 498.5,125.5C 505.144,122.27 506.144,117.937 501.5,112.5C 504.292,110.942 507.292,109.609 510.5,108.5C 511.739,106.993 511.405,105.826 509.5,105C 510.793,104.51 512.127,104.343 513.5,104.5C 513.5,111.5 513.5,118.5 513.5,125.5C 514.833,125.5 516.167,125.5 517.5,125.5C 517.5,118.167 517.5,110.833 517.5,103.5C 519.924,103.808 522.257,103.474 524.5,102.5C 524.376,101.893 524.043,101.56 523.5,101.5C 518.015,100.673 512.348,100.173 506.5,100C 508.878,99.0255 508.544,98.3589 505.5,98C 509.167,97.6667 512.833,97.3333 516.5,97C 513.635,96.8171 510.969,96.3171 508.5,95.5 Z"/></g>
<g><path style="opacity:1" fill="#eaf3ee" d="M 549.5,108.5 C 550.722,121.608 544.722,127.275 531.5,125.5C 529.608,124.298 527.774,122.965 526,121.5C 521.97,114.566 522.803,108.4 528.5,103C 537.066,99.6461 544.066,101.479 549.5,108.5 Z"/></g>
<g><path style="opacity:1" fill="#288659" d="M 533.5,102.5 C 543.977,102.833 547.81,108.166 545,118.5C 539.333,126.5 533.667,126.5 528,118.5C 526.016,111.66 527.85,106.327 533.5,102.5 Z"/></g>
<g><path style="opacity:1" fill="#818181" d="M 846.5,129.5 C 848.288,129.215 849.955,129.548 851.5,130.5C 851.043,131.298 850.376,131.631 849.5,131.5C 848.5,130.833 847.5,130.167 846.5,129.5 Z"/></g>
<g><path style="opacity:1" fill="#6e6e6e" d="M 315.5,130.5 C 317.027,130.427 318.027,131.094 318.5,132.5C 316.973,132.573 315.973,131.906 315.5,130.5 Z"/></g>
<g><path style="opacity:1" fill="#868686" d="M 493.5,136.5 C 484.5,135.167 475.5,135.167 466.5,136.5C 465.957,136.44 465.624,136.107 465.5,135.5C 475.483,134.334 485.483,134.168 495.5,135C 494.956,135.717 494.289,136.217 493.5,136.5 Z"/></g>
<g><path style="opacity:1" fill="#868686" d="M 504.5,135.5 C 512.01,134.18 519.677,134.18 527.5,135.5C 527.376,136.107 527.043,136.44 526.5,136.5C 519.352,135.508 512.019,135.175 504.5,135.5 Z"/></g>
<g><path style="opacity:1" fill="#888888" d="M 534.5,135.5 C 538.351,134.191 542.351,134.191 546.5,135.5C 546.376,136.107 546.043,136.44 545.5,136.5C 542.038,135.518 538.371,135.185 534.5,135.5 Z"/></g>
<g><path style="opacity:1" fill="#898989" d="M 551.5,135.5 C 555.019,134.192 558.685,134.192 562.5,135.5C 562.376,136.107 562.043,136.44 561.5,136.5C 558.375,135.521 555.042,135.187 551.5,135.5 Z"/></g>
<g><path style="opacity:1" fill="#7c7c7c" d="M 566.5,135.5 C 569.687,134.194 573.02,134.194 576.5,135.5C 576.376,136.107 576.043,136.44 575.5,136.5C 572.713,135.523 569.713,135.19 566.5,135.5 Z"/></g>
<g><path style="opacity:1" fill="#7a7a7a" d="M 612.5,135.5 C 609.287,135.19 606.287,135.523 603.5,136.5C 602.957,136.44 602.624,136.107 602.5,135.5C 605.98,134.194 609.313,134.194 612.5,135.5 Z"/></g>
<g><path style="opacity:1" fill="#848484" d="M 627.5,135.5 C 623.958,135.187 620.625,135.521 617.5,136.5C 616.957,136.44 616.624,136.107 616.5,135.5C 620.315,134.192 623.981,134.192 627.5,135.5 Z"/></g>
<g><path style="opacity:1" fill="#888888" d="M 644.5,135.5 C 640.629,135.185 636.962,135.518 633.5,136.5C 632.957,136.44 632.624,136.107 632.5,135.5C 636.649,134.191 640.649,134.191 644.5,135.5 Z"/></g>
<g><path style="opacity:1" fill="#878787" d="M 674.5,135.5 C 666.981,135.175 659.648,135.508 652.5,136.5C 651.957,136.44 651.624,136.107 651.5,135.5C 659.323,134.18 666.99,134.18 674.5,135.5 Z"/></g>
<g><path style="opacity:1" fill="#868686" d="M 712.5,136.5 C 703.5,135.167 694.5,135.167 685.5,136.5C 684.711,136.217 684.044,135.717 683.5,135C 693.517,134.168 703.517,134.334 713.5,135.5C 713.376,136.107 713.043,136.44 712.5,136.5 Z"/></g>
<g><path style="opacity:1" fill="#717171" d="M 326.5,135.5 C 329.152,135.41 331.485,136.076 333.5,137.5C 330.848,137.59 328.515,136.924 326.5,135.5 Z"/></g>
<g><path style="opacity:1" fill="#f3f3f3" d="M 466.5,136.5 C 475.5,135.167 484.5,135.167 493.5,136.5C 487.704,138.898 482.037,141.565 476.5,144.5C 473.136,141.825 469.803,139.158 466.5,136.5 Z"/></g>
<g><path style="opacity:1" fill="#f7f7f7" d="M 504.5,135.5 C 512.019,135.175 519.352,135.508 526.5,136.5C 516.329,143.751 505.996,150.751 495.5,157.5C 489.785,154.625 484.452,151.125 479.5,147C 487.585,142.624 495.918,138.791 504.5,135.5 Z"/></g>
<g><path style="opacity:1" fill="#f6f6f6" d="M 534.5,135.5 C 538.371,135.185 542.038,135.518 545.5,136.5C 535.438,147.228 525.105,157.562 514.5,167.5C 509.226,165.53 504.226,163.03 499.5,160C 511.064,151.588 522.731,143.422 534.5,135.5 Z"/></g>
<g><path style="opacity:1" fill="#f7f7f7" d="M 551.5,135.5 C 555.042,135.187 558.375,135.521 561.5,136.5C 554.062,150.395 545.895,163.728 537,176.5C 530.854,174.843 525.021,172.509 519.5,169.5C 529.822,157.844 540.489,146.511 551.5,135.5 Z"/></g>
<g><path style="opacity:1" fill="#f6f6f6" d="M 566.5,135.5 C 569.713,135.19 572.713,135.523 575.5,136.5C 571.038,151.344 567.038,166.344 563.5,181.5C 556.444,180.889 549.444,179.889 542.5,178.5C 542.491,176.692 542.991,175.025 544,173.5C 551.763,160.971 559.263,148.304 566.5,135.5 Z"/></g>
<g><path style="opacity:1" fill="#f7f7f7" d="M 579.5,134.5 C 582.167,134.5 584.833,134.5 587.5,134.5C 587.5,150.833 587.5,167.167 587.5,183.5C 580.464,183.241 573.464,182.574 566.5,181.5C 571.13,165.909 575.464,150.242 579.5,134.5 Z"/></g>
<g><path style="opacity:1" fill="#f7f7f7" d="M 591.5,134.5 C 594.167,134.5 596.833,134.5 599.5,134.5C 604.103,150.365 608.103,166.365 611.5,182.5C 604.814,182.527 598.148,182.861 591.5,183.5C 591.5,167.167 591.5,150.833 591.5,134.5 Z"/></g>
<g><path style="opacity:1" fill="#f7f7f7" d="M 612.5,135.5 C 620.473,149.149 628.473,162.816 636.5,176.5C 629.817,179.339 622.817,181.005 615.5,181.5C 611.965,166.361 607.965,151.361 603.5,136.5C 606.287,135.523 609.287,135.19 612.5,135.5 Z"/></g>
<g><path style="opacity:1" fill="#f8f8f8" d="M 627.5,135.5 C 638.511,146.511 649.178,157.844 659.5,169.5C 653.667,172.223 647.667,174.556 641.5,176.5C 633,163.506 625,150.173 617.5,136.5C 620.625,135.521 623.958,135.187 627.5,135.5 Z"/></g>
<g><path style="opacity:1" fill="#f6f6f6" d="M 644.5,135.5 C 656.287,143.447 667.954,151.613 679.5,160C 674.312,163.769 668.645,166.103 662.5,167C 652.994,156.662 643.328,146.495 633.5,136.5C 636.962,135.518 640.629,135.185 644.5,135.5 Z"/></g>
<g><path style="opacity:1" fill="#f7f7f7" d="M 652.5,136.5 C 659.648,135.508 666.981,135.175 674.5,135.5C 682.822,138.994 690.822,142.994 698.5,147.5C 693.977,151.592 688.977,154.925 683.5,157.5C 672.9,150.901 662.566,143.901 652.5,136.5 Z"/></g>
<g><path style="opacity:1" fill="#f3f3f3" d="M 685.5,136.5 C 694.5,135.167 703.5,135.167 712.5,136.5C 709.197,139.158 705.864,141.825 702.5,144.5C 696.928,141.546 691.261,138.88 685.5,136.5 Z"/></g>
<g><path style="opacity:1" fill="#f5f5f5" d="M 456.5,135.5 C 458.199,135.34 459.866,135.506 461.5,136C 465.213,139.36 468.379,142.86 471,146.5C 460.909,151.462 450.743,156.295 440.5,161C 436.833,161.667 433.167,161.667 429.5,161C 420.822,158.331 412.155,155.664 403.5,153C 421.194,147.046 438.861,141.213 456.5,135.5 Z"/></g>
<g><path style="opacity:1" fill="#f7f7f7" d="M 717.5,135.5 C 736.888,141.015 756.222,146.848 775.5,153C 767.829,155.335 760.162,157.668 752.5,160C 747.89,161.29 743.223,161.624 738.5,161C 728.257,156.295 718.091,151.462 708,146.5C 710.823,142.822 713.989,139.155 717.5,135.5 Z"/></g>
<g><path style="opacity:1" fill="#747474" d="M 333.5,137.5 C 337.162,137.723 340.495,138.723 343.5,140.5C 339.838,140.277 336.505,139.277 333.5,137.5 Z"/></g>
<g><path style="opacity:1" fill="#747474" d="M 343.5,140.5 C 346.152,140.41 348.485,141.076 350.5,142.5C 347.848,142.59 345.515,141.924 343.5,140.5 Z"/></g>
<g><path style="opacity:1" fill="#686868" d="M 350.5,142.5 C 353.152,142.41 355.485,143.076 357.5,144.5C 354.848,144.59 352.515,143.924 350.5,142.5 Z"/></g>
<g><path style="opacity:1" fill="#6c6c6c" d="M 357.5,144.5 C 361.162,144.723 364.495,145.723 367.5,147.5C 363.838,147.277 360.505,146.277 357.5,144.5 Z"/></g>
<g><path style="opacity:1" fill="#6b6b6b" d="M 367.5,147.5 C 370.152,147.41 372.485,148.076 374.5,149.5C 371.848,149.59 369.515,148.924 367.5,147.5 Z"/></g>
<g><path style="opacity:1" fill="#5f5f5f" d="M 374.5,149.5 C 377.152,149.41 379.485,150.076 381.5,151.5C 378.848,151.59 376.515,150.924 374.5,149.5 Z"/></g>
<g><path style="opacity:1" fill="#f8f8f8" d="M 474.5,148.5 C 479.663,152.144 484.996,155.644 490.5,159C 491.833,160 491.833,161 490.5,162C 480.811,169.175 470.811,175.841 460.5,182C 453.89,182.74 448.39,180.573 444,175.5C 442.421,172.006 440.587,168.673 438.5,165.5C 450.824,160.336 462.824,154.669 474.5,148.5 Z"/></g>
<g><path style="opacity:1" fill="#f8f8f8" d="M 702.5,148.5 C 715.154,154.164 727.821,159.83 740.5,165.5C 738.413,168.673 736.579,172.006 735,175.5C 730.108,180.369 724.275,182.536 717.5,182C 707.893,176.058 698.56,169.725 689.5,163C 687.993,162.163 687.493,160.996 688,159.5C 693.351,156.42 698.184,152.753 702.5,148.5 Z"/></g>
<g><path style="opacity:1" fill="#646464" d="M 381.5,151.5 C 385.162,151.723 388.495,152.723 391.5,154.5C 387.838,154.277 384.505,153.277 381.5,151.5 Z"/></g>
<g><path style="opacity:1" fill="#616161" d="M 391.5,154.5 C 394.152,154.41 396.485,155.076 398.5,156.5C 395.848,156.59 393.515,155.924 391.5,154.5 Z"/></g>
<g><path style="opacity:1" fill="#656565" d="M 398.5,156.5 C 402.162,156.723 405.495,157.723 408.5,159.5C 404.838,159.277 401.505,158.277 398.5,156.5 Z"/></g>
<g><path style="opacity:1" fill="#717171" d="M 408.5,159.5 C 412.162,159.723 415.495,160.723 418.5,162.5C 414.838,162.277 411.505,161.277 408.5,159.5 Z"/></g>
<g><path style="opacity:1" fill="#6f6f6f" d="M 418.5,162.5 C 421.152,162.41 423.485,163.076 425.5,164.5C 422.848,164.59 420.515,163.924 418.5,162.5 Z"/></g>
<g><path style="opacity:1" fill="#f7f7f7" d="M 495.5,162.5 C 500.816,165.472 506.15,168.472 511.5,171.5C 506.315,176.85 501.315,182.35 496.5,188C 494.194,189.986 491.528,191.153 488.5,191.5C 480.41,189.619 472.41,187.452 464.5,185C 474.901,177.479 485.234,169.979 495.5,162.5 Z"/></g>
<g><path style="opacity:1" fill="#f7f7f7" d="M 681.5,162.5 C 692.743,169.47 703.743,176.97 714.5,185C 706.412,187.418 698.245,189.585 690,191.5C 687.181,191.007 684.681,189.84 682.5,188C 677.685,182.35 672.685,176.85 667.5,171.5C 672.195,168.489 676.862,165.489 681.5,162.5 Z"/></g>
<g><path style="opacity:1" fill="#6d6d6d" d="M 425.5,164.5 C 427.898,164.259 429.898,164.926 431.5,166.5C 429.214,166.405 427.214,165.738 425.5,164.5 Z"/></g>
<g><path style="opacity:1" fill="#f7f7f7" d="M 515.5,172.5 C 521.844,175.615 528.511,177.949 535.5,179.5C 532.58,187.162 528.246,193.995 522.5,200C 513.23,198.914 504.23,196.58 495.5,193C 502.959,186.893 509.626,180.059 515.5,172.5 Z"/></g>
<g><path style="opacity:1" fill="#f6f6f6" d="M 661.5,172.5 C 669.297,178.795 676.63,185.629 683.5,193C 674.716,196.445 665.716,198.779 656.5,200C 651.05,194.274 646.717,187.774 643.5,180.5C 649.412,177.64 655.412,174.974 661.5,172.5 Z"/></g>
<g><path style="opacity:1" fill="#f7f7f7" d="M 539.5,181.5 C 546.738,183.151 554.072,184.151 561.5,184.5C 560.276,192.124 558.11,199.457 555,206.5C 553.562,207.718 551.895,208.385 550,208.5C 542.025,206.606 534.192,204.273 526.5,201.5C 531.342,195.146 535.675,188.479 539.5,181.5 Z"/></g>
<g><path style="opacity:1" fill="#f6f6f6" d="M 634.5,181.5 C 637.044,181.104 639.211,181.771 641,183.5C 644.085,190.009 647.918,196.009 652.5,201.5C 644.666,203.768 636.833,206.102 629,208.5C 624.582,207.72 621.916,205.054 621,200.5C 619.766,195.16 618.599,189.827 617.5,184.5C 623.407,184.137 629.073,183.137 634.5,181.5 Z"/></g>
<g><path style="opacity:1" fill="#efefef" d="M 574.5,186.5 C 576.833,187.167 579.167,187.833 581.5,188.5C 574.486,195.514 567.153,202.181 559.5,208.5C 561.106,201.757 562.939,194.757 565,187.5C 568.057,186.549 571.223,186.216 574.5,186.5 Z"/></g>
<g><path style="opacity:1" fill="#9a9a9a" d="M 574.5,186.5 C 577.247,186.187 579.914,186.52 582.5,187.5C 582.376,188.107 582.043,188.44 581.5,188.5C 579.167,187.833 576.833,187.167 574.5,186.5 Z"/></g>
<g><path style="opacity:1" fill="#e8e8e8" d="M 607.5,185.5 C 609.604,185.201 611.604,185.534 613.5,186.5C 615.879,194.041 617.879,201.374 619.5,208.5C 611.534,201.869 603.867,194.869 596.5,187.5C 600.313,186.833 603.979,186.166 607.5,185.5 Z"/></g>
<g><path style="opacity:0.659" fill="#6c6c6c" d="M 462.5,189.5 C 465.152,189.41 467.485,190.076 469.5,191.5C 466.848,191.59 464.515,190.924 462.5,189.5 Z"/></g>
<g><path style="opacity:1" fill="#686868" d="M 473.5,192.5 C 476.152,192.41 478.485,193.076 480.5,194.5C 477.848,194.59 475.515,193.924 473.5,192.5 Z"/></g>
<g><path style="opacity:1" fill="#808080" d="M 594.5,192.5 C 596.027,192.427 597.027,193.094 597.5,194.5C 595.973,194.573 594.973,193.906 594.5,192.5 Z"/></g>
<g><path style="opacity:0.576" fill="#7f7f7f" d="M 480.5,194.5 C 483.152,194.41 485.485,195.076 487.5,196.5C 484.848,196.59 482.515,195.924 480.5,194.5 Z"/></g>
<g><path style="opacity:0.663" fill="#6b6b6b" d="M 506.5,201.5 C 509.152,201.41 511.485,202.076 513.5,203.5C 510.848,203.59 508.515,202.924 506.5,201.5 Z"/></g>
<g><path style="opacity:1" fill="#676767" d="M 517.5,204.5 C 520.152,204.41 522.485,205.076 524.5,206.5C 521.848,206.59 519.515,205.924 517.5,204.5 Z"/></g>
<g><path style="opacity:1" fill="#686868" d="M 528.5,207.5 C 531.152,207.41 533.485,208.076 535.5,209.5C 532.848,209.59 530.515,208.924 528.5,207.5 Z"/></g>
<g><path style="opacity:0.678" fill="#696969" d="M 539.5,210.5 C 542.152,210.41 544.485,211.076 546.5,212.5C 543.848,212.59 541.515,211.924 539.5,210.5 Z"/></g>
</svg>
